PathFileType	4	(X/Y/Z)	SUBJ59_1_walk_RCNL2025.trc
DataRate	CameraRate	NumFrames	NumMarkers	Units	OrigDataRate	OrigDataStartFrame	OrigNumFrames
100	100	12	25	mm	100	1	345
Frame#	Time	R_Shoulder			L_Shoulder			C7			J_Notch			R_Elbow			L_Elbow			R_Wrist			L_Wrist			R_Asis			L_Asis			Sacral			Thoracic			Sternum			R_Thigh_Lateral			R_Knee_Lateral			R_Shank_Lateral			R_Ankle_Lateral			R_Heel			R_Toe			L_Thigh_Lateral			L_Knee_Lateral			L_Shank_Lateral			L_Ankle_Lateral			L_Heel			L_Toe		
		X1	Y1	Z1	X2	Y2	Z2	X3	Y3	Z3	X4	Y4	Z4	X5	Y5	Z5	X6	Y6	Z6	X7	Y7	Z7	X8	Y8	Z8	X9	Y9	Z9	X10	Y10	Z10	X11	Y11	Z11	X12	Y12	Z12	X13	Y13	Z13	X14	Y14	Z14	X15	Y15	Z15	X16	Y16	Z16	X17	Y17	Z17	X18	Y18	Z18	X19	Y19	Z19	X20	Y20	Z20	X21	Y21	Z21	X22	Y22	Z22	X23	Y23	Z23	X24	Y24	Z24	X25	Y25	Z25
1	0.00000000	-2145.727539	1449.024292	465.901306	-2130.758789	1479.311401	68.340500	-2231.933838	1549.247192	260.867706	-2070.779297	1451.753052	264.384705	-2219.148682	1136.416138	553.879761	-2081.917969	1149.301392	-42.181362	-2180.565552	858.802032	550.854675	-1977.784485	906.334106	-18.660440	-2079.644287	990.887573	381.489807	-2073.139404	990.425110	154.268982	-2296.556152	1014.036255	264.505463	-2298.316162	1332.838745	242.034302	-2015.866821	1256.431519	258.405701	-2053.094238	614.709412	494.632996	-2035.876465	519.147705	443.743286	-2092.970947	332.602600	514.448242	-2158.833984	95.116180	396.737152	-2192.144775	90.393967	344.867920	-2006.717041	47.738132	376.665100	-2178.564453	600.347717	85.176270	-2187.536133	492.816193	146.311020	-2208.968994	293.589874	91.860306	-2240.858887	69.148621	179.701080	-2288.897217	48.935856	230.785873	-2082.695068	30.797258	225.412903
2	0.01000000	-2140.687500	1448.087280	466.542480	-2125.451660	1479.212891	68.985909	-2226.758301	1548.673950	261.569000	-2065.550781	1451.251953	264.904633	-2215.103516	1135.432739	553.811401	-2075.166260	1149.656250	-42.264847	-2178.210449	857.609009	550.555359	-1968.210205	908.113800	-17.930100	-2073.953613	990.430725	381.582977	-2067.931885	989.841919	154.385864	-2291.087646	1013.403198	264.998077	-2293.076904	1332.278687	242.396240	-2010.483887	1255.993774	258.492615	-2046.582764	614.397400	494.389496	-2028.799194	518.841675	443.271423	-2081.776123	330.962250	514.200317	-2139.303955	91.465881	397.188263	-2172.008057	85.678535	345.050598	-1985.739258	48.363487	378.137268	-2175.252197	600.046692	85.315437	-2184.932373	492.613556	146.523392	-2207.654297	293.539368	91.997406	-2240.764404	69.216080	179.844009	-2288.849121	49.071995	230.960815	-2082.695557	30.839924	225.354736
3	0.02000000	-2134.330811	1446.844116	467.376587	-2118.745117	1479.027222	69.807800	-2220.206055	1547.898804	262.472229	-2058.945312	1450.554810	265.617371	-2209.924561	1134.136353	553.745789	-2066.720459	1150.022949	-42.356136	-2175.140259	856.061554	550.207581	-1956.290405	910.293243	-16.931778	-2066.765625	989.805054	381.733246	-2061.332764	989.081604	154.554428	-2284.169434	1012.547546	265.622040	-2286.453613	1331.537964	242.862488	-2003.751953	1255.348267	258.687714	-2038.558228	613.778687	494.065887	-2020.089355	518.316284	442.673248	-2067.790039	328.902466	513.932007	-2114.751953	87.172997	397.812622	-2146.690918	80.098282	345.353149	-1959.530273	49.438236	379.953461	-2171.081543	599.659363	85.491692	-2181.650391	492.360413	146.779648	-2206.019775	293.485931	92.166534	-2240.647705	69.306496	180.015305	-2288.790039	49.253990	231.171310	-2082.698486	30.891253	225.270813
4	0.03000000	-2126.901855	1445.314453	468.385437	-2110.892090	1478.733154	70.780769	-2212.520020	1546.928467	263.554199	-2051.211182	1449.661743	266.522369	-2203.775391	1132.550171	553.695740	-2056.958740	1150.361084	-42.449192	-2171.420288	854.201447	549.842621	-1942.566101	912.766937	-15.673962	-2058.350586	989.010254	381.951782	-2053.587891	988.161377	154.779388	-2276.058838	1011.475708	266.357758	-2278.693848	1330.628174	243.420868	-1995.957642	1254.487549	259.021942	-2029.437622	612.772339	493.683594	-2010.186523	517.527466	441.975739	-2051.610840	326.515106	513.678711	-2086.215332	82.578423	398.614960	-2117.270996	74.072327	345.811127	-1929.283936	51.083050	382.043243	-2166.215576	599.199951	85.697922	-2177.812256	492.064148	147.069824	-2204.116699	293.429779	92.366028	-2240.510254	69.418175	180.206253	-2288.718994	49.478512	231.402725	-2082.696045	30.942787	225.165268
5	0.04000000	-2118.693848	1443.537354	469.541443	-2102.195312	1478.316040	71.877922	-2203.995850	1545.781250	264.785614	-2042.647583	1448.586792	267.606506	-2196.868408	1130.715210	553.676270	-2046.325684	1150.638672	-42.536049	-2167.142822	852.089722	549.496429	-1927.660583	915.415039	-14.184537	-2049.035645	988.056274	382.241974	-2045.000244	987.104370	155.063065	-2267.070068	1010.207336	267.184998	-2270.099121	1329.569824	244.055878	-1987.432007	1253.422241	259.517487	-2019.697876	611.326965	493.282104	-1999.575073	516.450134	441.213837	-2033.929077	323.918915	513.477600	-2054.980957	78.052856	399.595001	-2085.089600	68.054314	346.463715	-1896.444580	53.395439	384.328796	-2160.840576	598.683044	85.929863	-2173.552979	491.728363	147.390671	-2201.987793	293.365540	92.600693	-2240.350098	69.548592	180.410278	-2288.632812	49.739334	231.640671	-2082.676025	30.983263	225.047943
6	0.05000000	-2109.973877	1441.558594	470.815186	-2092.930420	1477.770630	73.079430	-2194.908691	1544.481079	266.139374	-2033.530151	1447.349487	268.846954	-2189.411377	1128.678711	553.704285	-2035.218994	1150.831787	-42.603443	-2162.397827	849.790558	549.200836	-1912.138672	918.128876	-12.500535	-2039.122681	986.963013	382.600464	-2035.856079	985.934875	155.400696	-2257.495361	1008.768616	268.090790	-2260.949707	1328.386475	244.753784	-1978.470459	1252.171387	260.188141	-2009.769043	609.425110	492.906158	-1988.669312	515.081909	440.420837	-2015.371094	321.242188	513.362488	-2022.305664	73.921333	400.753021	-2051.452148	62.436375	347.345367	-1862.387329	56.426628	386.727112	-2155.110352	598.113586	86.191513	-2168.977783	491.349396	147.749115	-2199.648193	293.282623	92.882195	-2240.162354	69.696075	180.625473	-2288.527832	50.030918	231.877426	-2082.630615	31.004797	224.931137
7	0.06000000	-2100.950928	1439.421997	472.181549	-2083.313477	1477.102051	74.372978	-2185.479492	1543.052734	267.593842	-2024.076050	1445.969482	270.215790	-2181.576172	1126.487915	553.795898	-2023.941406	1150.924316	-42.632870	-2157.257935	847.361053	548.976715	-1896.458557	920.823944	-10.658201	-2028.853760	985.757812	383.022949	-2026.389282	984.676086	155.779205	-2247.569336	1007.188599	269.071564	-2251.468750	1327.101196	245.505646	-1969.296509	1250.759277	261.037842	-1999.985474	607.080078	492.588898	-1977.766357	513.444824	439.623444	-1996.442139	318.617798	513.358887	-1989.272949	70.423798	402.089111	-2017.481812	57.502644	348.476562	-1828.266113	60.167633	389.153717	-2149.123779	597.483582	86.493828	-2164.150635	490.917267	148.158630	-2197.084717	293.165710	93.226044	-2239.941650	69.860275	180.854019	-2288.401123	50.351284	232.113373	-2082.561279	31.006546	224.828217
8	0.07000000	-2091.767334	1437.166626	473.623566	-2073.497314	1476.324829	75.752670	-2175.864746	1541.519897	269.133514	-2014.436523	1444.463745	271.687805	-2173.490479	1124.185547	553.964111	-2012.694214	1150.906982	-42.603001	-2151.773682	844.847656	548.832062	-1880.964661	923.436920	-8.686058	-2018.401367	984.467407	383.505920	-2016.768188	983.345215	156.183670	-2237.459473	1005.498047	270.130676	-2241.813721	1325.735229	246.308472	-1960.045288	1249.218262	262.054169	-1990.572021	604.333435	492.341370	-1967.041748	511.585144	438.841309	-1977.526001	316.176117	513.479919	-1956.741821	67.701981	403.598022	-1984.069214	53.418362	349.859253	-1794.969604	64.543701	391.530273	-2142.928223	596.777283	86.849098	-2159.104736	490.421143	148.631195	-2194.267334	292.997864	93.647148	-2239.681885	70.041878	181.099228	-2288.251221	50.703125	232.353302	-2082.476318	30.993050	224.752716
9	0.08000000	-2082.506592	1434.828857	475.132294	-2063.577881	1475.460083	77.218338	-2166.164551	1539.905640	270.749023	-2004.704590	1442.850830	273.247070	-2165.239746	1121.809082	554.219299	-2001.594971	1150.777588	-42.493309	-2145.975342	842.287415	548.766907	-1865.886963	925.920380	-6.598967	-2007.875122	983.112915	384.043365	-2007.097168	981.953369	156.602448	-2227.270996	1003.728577	271.273834	-2232.080078	1324.306641	247.164597	-1950.759766	1247.588257	263.203949	-1981.644897	601.255676	492.152893	-1956.568359	509.569580	438.091125	-1958.902710	314.027679	513.723816	-1925.354004	65.802032	405.262939	-1951.882202	50.238121	351.472992	-1763.134277	69.414948	393.783936	-2136.540771	595.982300	87.264137	-2153.859863	489.856049	149.169662	-2191.177490	292.768921	94.153076	-2239.379395	70.242737	181.361557	-2288.079834	51.094231	232.600967	-2082.385498	30.970589	224.715210
10	0.09000000	-2073.208496	1432.443237	476.705139	-2053.609131	1474.532104	78.773247	-2156.432373	1538.231567	272.437378	-1994.928223	1441.155762	274.887146	-2156.875732	1119.391479	554.568481	-1990.703369	1150.542358	-42.287914	-2139.877197	839.710907	548.782593	-1851.351013	928.241028	-4.395400	-1997.333984	981.710510	384.625153	-1997.431152	980.509094	157.026993	-2217.060303	1001.912903	272.506042	-2222.313965	1322.830444	248.080231	-1941.413574	1245.910156	264.442139	-1973.217041	597.945740	492.001221	-1946.343506	507.476440	437.392517	-1940.766846	312.243073	514.076660	-1895.567261	64.683502	407.048157	-1921.402344	47.923912	353.273224	-1733.185547	74.584564	395.841827	-2129.972168	595.099609	87.735031	-2148.434082	489.225372	149.765640	-2187.834717	292.485657	94.737595	-2239.034424	70.467903	181.635193	-2287.889404	51.537697	232.854797	-2082.297363	30.944641	224.719986
11	0.10000000	-2063.882568	1430.040161	478.343353	-2043.614990	1473.565674	80.421936	-2146.688721	1536.517822	274.200317	-1985.125610	1439.409546	276.605865	-2148.422119	1116.959839	555.014893	-1980.045044	1150.215332	-41.976742	-2133.484131	837.144684	548.890015	-1837.406189	930.377075	-2.068091	-1986.799561	980.271057	385.237915	-1987.787842	979.017700	157.452118	-2206.847900	1000.084412	273.830414	-2212.528076	1321.320068	249.063919	-1931.960205	1244.218506	265.728577	-1965.205688	594.527588	491.865295	-1936.316406	505.381989	436.769379	-1923.241577	310.840088	514.518250	-1867.699951	64.231636	408.892548	-1892.970215	46.367626	355.193329	-1705.388306	79.812874	397.628418	-2123.237061	594.143250	88.249359	-2142.845215	488.538300	150.403702	-2184.301270	292.174164	95.380150	-2238.653076	70.728737	181.907242	-2287.682373	52.051502	233.106674	-2082.216064	30.918566	224.763748
12	0.11000000	-2054.519775	1427.644531	480.049164	-2033.599487	1472.583252	82.169319	-2136.933594	1534.782837	276.041718	-1975.295898	1437.647217	278.401215	-2139.883545	1114.536255	555.559631	-1969.626343	1149.815552	-41.553276	-2126.794678	834.611877	549.110535	-1824.059021	932.314178	0.381602	-1976.267822	978.796692	385.863647	-1978.159302	977.480469	157.877502	-2196.631592	998.275757	275.246307	-2202.714355	1319.788452	250.125580	-1922.368774	1242.537354	267.036926	-1957.451660	591.141357	491.734741	-1926.414185	503.348816	436.245728	-1906.393799	309.782349	515.024231	-1841.971558	64.274010	410.708710	-1866.820801	45.410252	357.144928	-1679.894409	84.834358	399.068542	-2116.353516	593.131287	88.795212	-2137.111328	487.807709	151.065643	-2180.667725	291.874847	96.050369	-2238.245361	71.044159	182.160767	-2287.458496	52.657436	233.343582	-2082.141113	30.893015	224.835693
